M48
METRIC,LZ,000.000
;FILE_FORMAT=3:3
;TYPE=PLATED
;Layer: PTH_Through
;EasyEDA v6.5.15, 2022-09-11 10:55:29
;ed46f784822541178e28114758a66e58,0733e296ef1a46c0ad389398f95fef4a,10
;Gerber Generator version 0.2
;Holesize 1 = 0.301 mm
T01C0.301
;Holesize 2 = 0.701 mm
T02C0.701
%
G05
G90
T01
X002350Y002500
X005600Y011300
X006700Y007500
X005132Y001066
X005582Y000566
X003700Y002700
X004177Y008983
X004812Y008983
X003542Y008983
X006850Y006250
X005450Y002500
X001700Y006350
X002300Y005550
X003900Y004450
X005900Y004500
X000850Y007450
X000850Y006850
X000550Y009000
X002300Y004000
X003900Y007350
T02
X001000Y012900
X003000Y012900
X005001Y012902
X007000Y012900
M30
