G04 Layer: TopLayer*
G04 EasyEDA v6.4.7, 2020-12-23T10:17:39+03:00*
G04 bf3f715a1c0e44a583c2b2c1f4ee8152,0733e296ef1a46c0ad389398f95fef4a,10*
G04 Gerber Generator version 0.2*
G04 Scale: 100 percent, Rotated: No, Reflected: No *
G04 Dimensions in inches *
G04 leading zeros omitted , absolute positions ,2 integer and 4 decimal *
%FSLAX24Y24*%
%MOIN*%
G90*
D02*

%ADD10C,0.010000*%
%ADD11C,0.016000*%
%ADD12C,0.024000*%
%ADD14R,0.019685X0.011810*%
%ADD15R,0.011810X0.019685*%
%ADD16R,0.039370X0.023622*%
%ADD19C,0.059055*%

%LPD*%
G54D10*
G01X1850Y4050D02*
G01X2100Y3800D01*
G01X2150Y3800D01*
G01X1612Y2909D02*
G01X1450Y2900D01*
G01X1350Y2800D01*
G01X1350Y2650D01*
G01X850Y2150D01*
G01X450Y2150D01*
G54D11*
G01X200Y2150D02*
G01X200Y2350D01*
G01X300Y2450D01*
G01X750Y2450D01*
G54D10*
G01X648Y800D02*
G01X950Y800D01*
G01X1950Y1800D01*
G01X1950Y2150D01*
G54D11*
G01X647Y300D02*
G01X2350Y300D01*
G01X200Y735D02*
G01X200Y2050D01*
G01X200Y2150D01*
G01X400Y300D02*
G01X200Y500D01*
G01X200Y734D01*
G01X647Y1800D02*
G01X450Y1800D01*
G01X647Y1300D02*
G01X450Y1300D01*
G01X647Y800D02*
G01X450Y800D01*
G01X2851Y300D02*
G01X3100Y300D01*
G01X2852Y800D02*
G01X3100Y800D01*
G01X2852Y1800D02*
G01X3100Y1800D01*
G01X2852Y1300D02*
G01X3100Y1300D01*
G01X647Y300D02*
G01X400Y300D01*
G54D10*
G01X1613Y4090D02*
G01X1400Y4100D01*
G01X1350Y4150D01*
G01X1350Y4400D01*
G01X600Y5150D01*
G01X600Y5550D01*
G01X2851Y300D02*
G01X3100Y300D01*
G01X3350Y550D01*
G01X3350Y2100D01*
G01X2800Y2500D01*
G01X2794Y2713D01*
G01X3187Y3303D02*
G01X2800Y3303D01*
G01X2800Y3500D01*
G01X3187Y3500D02*
G01X2800Y3500D01*
G01X2700Y3600D01*
G01X2350Y3600D01*
G01X2250Y3500D01*
G01X3187Y3106D02*
G01X2743Y3106D01*
G01X2550Y3300D01*
G01X2500Y3300D01*
G01X647Y1300D02*
G01X750Y1300D01*
G01X1650Y2200D01*
G01X1612Y3303D02*
G01X1746Y3303D01*
G01X1850Y3200D01*
G01X1950Y3200D01*
G01X2250Y3500D01*
G01X2852Y1730D02*
G01X2852Y2002D01*
G01X2950Y2100D01*
G01X2852Y1300D02*
G01X2852Y1800D01*
G01X1612Y3500D02*
G01X1900Y3500D01*
G01X2203Y2712D02*
G01X2203Y846D01*
G01X2400Y650D01*
G01X2400Y2712D02*
G01X2400Y999D01*
G01X2600Y800D01*
G01X2852Y800D01*
G01X2596Y2712D02*
G01X2596Y2303D01*
G01X2650Y2250D01*
G01X3187Y3106D02*
G01X3300Y3106D01*
G01X3187Y3303D02*
G01X3300Y3303D01*
G01X3187Y3500D02*
G01X3300Y3500D01*
G01X2005Y2713D02*
G01X2005Y2505D01*
G01X1950Y2450D01*
G01X1500Y2450D01*
G01X850Y1800D01*
G01X647Y1800D01*
G01X1613Y3303D02*
G01X1500Y3300D01*
G01X1612Y3500D02*
G01X1500Y3500D01*
G01X1613Y3696D02*
G01X1446Y3696D01*
G01X796Y3046D01*
G01X650Y3046D01*
G01X1612Y3893D02*
G01X709Y3893D01*
G01X650Y3952D01*
G01X2990Y4287D02*
G01X2990Y4459D01*
G01X2700Y4750D01*
G01X3188Y4090D02*
G01X3350Y4100D01*
G01X3350Y4600D01*
G01X3200Y4750D01*
G01X2175Y4825D02*
G01X2175Y4825D01*
G01X2175Y5548D01*
G01X2005Y4286D02*
G01X2000Y4650D01*
G01X2175Y4825D01*
G01X1525Y4775D02*
G01X1387Y4912D01*
G01X1387Y5550D01*
G01X1809Y4287D02*
G01X1809Y4490D01*
G01X1525Y4775D01*
G01X1613Y4090D02*
G01X1850Y4050D01*
G36*
G01X128Y4297D02*
G01X1171Y4297D01*
G01X1171Y3608D01*
G01X128Y3608D01*
G01X128Y4297D01*
G37*
G36*
G01X128Y3391D02*
G01X1171Y3391D01*
G01X1171Y2702D01*
G01X128Y2702D01*
G01X128Y3391D01*
G37*
G36*
G01X1514Y4149D02*
G01X1711Y4149D01*
G01X1711Y4031D01*
G01X1514Y4031D01*
G01X1514Y4149D01*
G37*
G36*
G01X1514Y3952D02*
G01X1710Y3952D01*
G01X1710Y3834D01*
G01X1514Y3834D01*
G01X1514Y3952D01*
G37*
G36*
G01X1514Y3756D02*
G01X1711Y3756D01*
G01X1711Y3637D01*
G01X1514Y3637D01*
G01X1514Y3756D01*
G37*
G36*
G01X1514Y3559D02*
G01X1711Y3559D01*
G01X1711Y3440D01*
G01X1514Y3440D01*
G01X1514Y3559D01*
G37*
G36*
G01X1514Y3362D02*
G01X1711Y3362D01*
G01X1711Y3244D01*
G01X1514Y3244D01*
G01X1514Y3362D01*
G37*
G36*
G01X1514Y3165D02*
G01X1711Y3165D01*
G01X1711Y3047D01*
G01X1514Y3047D01*
G01X1514Y3165D01*
G37*
G36*
G01X1514Y2968D02*
G01X1711Y2968D01*
G01X1711Y2850D01*
G01X1514Y2850D01*
G01X1514Y2968D01*
G37*
G54D15*
G01X1809Y2712D03*
G01X2006Y2712D03*
G01X2203Y2712D03*
G01X2400Y2712D03*
G01X2596Y2712D03*
G01X2793Y2712D03*
G01X2990Y2712D03*
G54D14*
G01X3187Y2909D03*
G01X3187Y3106D03*
G01X3187Y3303D03*
G01X3187Y3500D03*
G01X3187Y3696D03*
G01X3187Y3893D03*
G01X3187Y4090D03*
G54D15*
G01X2990Y4287D03*
G01X2793Y4287D03*
G01X2596Y4287D03*
G01X2400Y4287D03*
G01X2203Y4287D03*
G01X2006Y4287D03*
G01X1809Y4287D03*
G54D16*
G01X2852Y1800D03*
G01X2852Y1300D03*
G01X2852Y800D03*
G01X2852Y300D03*
G01X647Y300D03*
G01X647Y800D03*
G01X647Y1300D03*
G01X647Y1800D03*
G36*
G01X3050Y4900D02*
G01X3350Y4900D01*
G01X3350Y4600D01*
G01X3050Y4600D01*
G01X3050Y4900D01*
G37*
G36*
G01X2550Y4900D02*
G01X2850Y4900D01*
G01X2850Y4600D01*
G01X2550Y4600D01*
G01X2550Y4900D01*
G37*
G36*
G01X304Y6042D02*
G01X304Y5057D01*
G01X895Y5057D01*
G01X895Y6042D01*
G01X304Y6042D01*
G37*
G54D12*
G01X2150Y3800D03*
G01X750Y2450D03*
G01X450Y2150D03*
G01X1950Y3200D03*
G01X1525Y4775D03*
G01X2175Y4825D03*
G01X600Y4827D03*
G01X2350Y300D03*
G01X2550Y3300D03*
G01X1950Y2150D03*
G01X2250Y3500D03*
G01X2950Y2100D03*
G01X1900Y3500D03*
G01X350Y3800D03*
G01X350Y3075D03*
G01X2400Y650D03*
G01X2650Y2250D03*
G01X1650Y2200D03*
G54D19*
G01X1387Y5353D02*
G01X1387Y5746D01*
G01X2175Y5352D02*
G01X2175Y5746D01*
G01X2962Y5353D02*
G01X2962Y5746D01*
M00*
M02*
