G04 Layer: TopLayer*
G04 EasyEDA v6.5.15, 2022-09-11 10:55:29*
G04 ed46f784822541178e28114758a66e58,0733e296ef1a46c0ad389398f95fef4a,10*
G04 Gerber Generator version 0.2*
G04 Scale: 100 percent, Rotated: No, Reflected: No *
G04 Dimensions in millimeters *
G04 leading zeros omitted , absolute positions ,4 integer and 5 decimal *
%FSLAX45Y45*%
%MOMM*%

%AMMACRO1*4,1,4,0.15,0.35,0.15,-0.35,-0.15,-0.35,-0.15,0.35,0.15,0.35,0*%
%AMMACRO2*4,1,5,0.15,0.0875,0.15,-0.3375,-0.15,-0.3375,-0.15,0.3375,-0.1,0.3375,0.15,0.0875,0*%
%AMMACRO3*4,1,5,-0.0876,-0.15,0.3375,-0.15,0.3375,0.15,-0.3375,0.15,-0.3375,0.1001,-0.0876,-0.15,0*%
%AMMACRO4*4,1,5,0.15,-0.0875,0.15,0.3375,-0.15,0.3375,-0.15,-0.3375,-0.1,-0.3375,0.15,-0.0875,0*%
%AMMACRO5*4,1,5,-0.0875,0.15,0.3375,0.15,0.3375,-0.15,-0.3375,-0.15,-0.3375,-0.1,-0.0875,0.15,0*%
%AMMACRO6*4,1,5,0.0875,0.15,-0.3375,0.15,-0.3375,-0.15,0.3375,-0.15,0.3375,-0.1,0.0875,0.15,0*%
%AMMACRO7*4,1,5,-0.15,-0.0875,-0.15,0.3375,0.15,0.3375,0.15,-0.3375,0.1001,-0.3375,-0.15,-0.0875,0*%
%AMMACRO8*4,1,5,-0.15,0.0875,-0.15,-0.3375,0.15,-0.3375,0.15,0.3375,0.1001,0.3375,-0.15,0.0875,0*%
%AMMACRO9*4,1,5,0.0875,-0.15,-0.3375,-0.15,-0.3375,0.15,0.3375,0.15,0.3375,0.1001,0.0875,-0.15,0*%
%ADD10C,0.2000*%
%ADD11C,0.3500*%
%ADD12C,0.2500*%
%ADD13R,1.0000X0.6000*%
%ADD14C,0.8000*%
%ADD15R,0.7000X0.3000*%
%ADD16R,0.3000X0.7000*%
%ADD17MACRO1*%
%ADD18MACRO2*%
%ADD19MACRO3*%
%ADD20MACRO4*%
%ADD21MACRO5*%
%ADD22MACRO6*%
%ADD23MACRO7*%
%ADD24MACRO8*%
%ADD25MACRO9*%
%ADD26R,1.5000X2.5000*%
%ADD27O,1.499997X2.4999949999999997*%
%ADD28C,0.5000*%
%ADD29C,0.0115*%

%LPD*%
G36*
X141274Y1023061D02*
G01*
X137007Y1024534D01*
X133807Y1027684D01*
X127711Y1037183D01*
X120954Y1044498D01*
X113080Y1050594D01*
X104292Y1055370D01*
X94843Y1058621D01*
X84988Y1060246D01*
X75031Y1060246D01*
X65176Y1058621D01*
X55727Y1055370D01*
X46939Y1050594D01*
X34899Y1041095D01*
X30937Y1040231D01*
X26974Y1040892D01*
X23571Y1043076D01*
X21336Y1046429D01*
X20523Y1050340D01*
X20523Y1134364D01*
X21285Y1138224D01*
X23469Y1141526D01*
X26771Y1143711D01*
X30683Y1144524D01*
X84988Y1144524D01*
X84988Y1259332D01*
X85750Y1263243D01*
X87934Y1266545D01*
X91236Y1268730D01*
X95148Y1269492D01*
X104800Y1269492D01*
X108712Y1268730D01*
X112014Y1266545D01*
X114198Y1263243D01*
X114960Y1259332D01*
X114960Y1144524D01*
X174396Y1144524D01*
X179527Y1145082D01*
X183845Y1146606D01*
X187706Y1149045D01*
X190957Y1152245D01*
X193395Y1156106D01*
X194919Y1160475D01*
X195478Y1165555D01*
X195478Y1192936D01*
X196443Y1197305D01*
X199237Y1200810D01*
X203250Y1202842D01*
X207721Y1202893D01*
X211785Y1201064D01*
X214680Y1197610D01*
X218389Y1190396D01*
X225907Y1179728D01*
X234797Y1170228D01*
X244906Y1161999D01*
X256895Y1154734D01*
X259537Y1152499D01*
X261213Y1149451D01*
X261823Y1146048D01*
X261823Y1105712D01*
X261061Y1101801D01*
X258825Y1098499D01*
X255524Y1096314D01*
X251663Y1095552D01*
X227888Y1095552D01*
X222758Y1094943D01*
X218440Y1093419D01*
X214579Y1091031D01*
X211328Y1087780D01*
X208889Y1083919D01*
X207416Y1079601D01*
X206806Y1074470D01*
X206806Y1043178D01*
X206044Y1039317D01*
X203860Y1036015D01*
X200558Y1033780D01*
X196646Y1033018D01*
X165404Y1033018D01*
X160274Y1032459D01*
X155956Y1030935D01*
X152095Y1028496D01*
X149555Y1025956D01*
X145745Y1023569D01*
G37*

%LPD*%
G36*
X768502Y1013307D02*
G01*
X764540Y1014476D01*
X759510Y1017219D01*
X750062Y1020419D01*
X740206Y1022096D01*
X730199Y1022096D01*
X724001Y1021080D01*
X720547Y1021080D01*
X717296Y1022248D01*
X711911Y1025347D01*
X705866Y1027277D01*
X699008Y1028039D01*
X636270Y1028039D01*
X633476Y1028395D01*
X628700Y1030935D01*
X624382Y1032459D01*
X619252Y1033018D01*
X587959Y1033018D01*
X584098Y1033780D01*
X580796Y1036015D01*
X578612Y1039317D01*
X577799Y1043178D01*
X577799Y1074470D01*
X577240Y1079601D01*
X575716Y1083919D01*
X573278Y1087780D01*
X570077Y1091031D01*
X566166Y1093470D01*
X561848Y1094943D01*
X556768Y1095552D01*
X527862Y1095552D01*
X522782Y1094943D01*
X517296Y1093673D01*
X511860Y1094943D01*
X506730Y1095552D01*
X477875Y1095552D01*
X472795Y1094943D01*
X467309Y1093622D01*
X461873Y1094943D01*
X456742Y1095552D01*
X427888Y1095552D01*
X422757Y1094943D01*
X417322Y1093673D01*
X411835Y1094943D01*
X406755Y1095552D01*
X390499Y1095552D01*
X386588Y1096314D01*
X383286Y1098499D01*
X381101Y1101801D01*
X380339Y1105712D01*
X381101Y1109573D01*
X383286Y1112875D01*
X431749Y1161288D01*
X435508Y1163675D01*
X439978Y1164234D01*
X444195Y1162761D01*
X456234Y1155446D01*
X468172Y1150264D01*
X480720Y1146708D01*
X493623Y1144930D01*
X506628Y1144930D01*
X519531Y1146708D01*
X532079Y1150264D01*
X544068Y1155446D01*
X555193Y1162202D01*
X565302Y1170432D01*
X574192Y1179931D01*
X581710Y1190599D01*
X587705Y1202182D01*
X590448Y1209903D01*
X592582Y1213408D01*
X595985Y1215796D01*
X599998Y1216660D01*
X604062Y1215796D01*
X607466Y1213408D01*
X609600Y1209903D01*
X612394Y1201978D01*
X618388Y1190396D01*
X625906Y1179728D01*
X634796Y1170228D01*
X644906Y1161999D01*
X656031Y1155242D01*
X668020Y1150061D01*
X680567Y1146505D01*
X693470Y1144727D01*
X706475Y1144727D01*
X719378Y1146505D01*
X731926Y1150061D01*
X743915Y1155242D01*
X755040Y1161999D01*
X762965Y1168450D01*
X766267Y1170228D01*
X770026Y1170686D01*
X773734Y1169720D01*
X776782Y1167485D01*
X778814Y1164285D01*
X779526Y1160526D01*
X779526Y1023416D01*
X778662Y1019352D01*
X776224Y1015949D01*
X772668Y1013815D01*
G37*

%LPD*%
G36*
X31851Y745744D02*
G01*
X27635Y746150D01*
X23926Y748233D01*
X21386Y751687D01*
X20523Y755853D01*
X20523Y949655D01*
X21336Y953566D01*
X23571Y956919D01*
X26974Y959103D01*
X30937Y959764D01*
X34899Y958900D01*
X46939Y949401D01*
X55727Y944626D01*
X59131Y943203D01*
X60909Y941730D01*
X78079Y924560D01*
X83870Y919886D01*
X90881Y916330D01*
X93878Y913993D01*
X95808Y910742D01*
X96418Y906983D01*
X95554Y903274D01*
X93421Y900125D01*
X62077Y868730D01*
X57404Y862990D01*
X54254Y856843D01*
X52425Y850036D01*
X52019Y844651D01*
X52019Y780034D01*
X51308Y776325D01*
X44602Y765810D01*
X41402Y757834D01*
X40640Y753922D01*
X39014Y750011D01*
X35864Y747115D01*
G37*

%LPD*%
G36*
X262585Y707390D02*
G01*
X257708Y708609D01*
X254762Y710895D01*
X252882Y714095D01*
X252272Y719378D01*
X252831Y722579D01*
X254711Y727964D01*
X255320Y733094D01*
X255320Y761949D01*
X254711Y767080D01*
X253441Y772515D01*
X254711Y778002D01*
X255320Y783082D01*
X255320Y811936D01*
X254711Y817067D01*
X253441Y822553D01*
X254711Y827989D01*
X255219Y832510D01*
X238048Y832612D01*
X234238Y833018D01*
X165354Y833018D01*
X160375Y832510D01*
X144373Y832510D01*
X144221Y828395D01*
X142951Y825398D01*
X140817Y822960D01*
X134670Y817829D01*
X131318Y816000D01*
X127558Y815543D01*
X123850Y816457D01*
X120751Y818692D01*
X118719Y821944D01*
X118008Y827176D01*
X118770Y831037D01*
X121005Y834339D01*
X126949Y840282D01*
X130149Y842467D01*
X133654Y843229D01*
X134315Y846582D01*
X136550Y849884D01*
X146202Y859536D01*
X149504Y861771D01*
X153416Y862533D01*
X161544Y862482D01*
X165354Y862025D01*
X234238Y862025D01*
X239217Y862533D01*
X255219Y862533D01*
X254711Y867054D01*
X253441Y872540D01*
X254711Y877976D01*
X255320Y883107D01*
X255320Y911961D01*
X254711Y917092D01*
X253441Y922528D01*
X254711Y927963D01*
X255320Y933094D01*
X255320Y961948D01*
X254711Y967028D01*
X252679Y972667D01*
X252171Y977239D01*
X253390Y982167D01*
X255727Y985113D01*
X258978Y986993D01*
X264261Y987552D01*
X267360Y986993D01*
X272745Y985113D01*
X277876Y984554D01*
X306730Y984554D01*
X311861Y985113D01*
X317296Y986434D01*
X322732Y985113D01*
X327863Y984554D01*
X356717Y984554D01*
X361848Y985113D01*
X367284Y986434D01*
X372770Y985113D01*
X377850Y984554D01*
X406755Y984554D01*
X411835Y985113D01*
X417322Y986434D01*
X422757Y985113D01*
X427888Y984554D01*
X456742Y984554D01*
X461873Y985113D01*
X467309Y986434D01*
X472795Y985113D01*
X477875Y984554D01*
X506730Y984554D01*
X511809Y985113D01*
X517448Y987145D01*
X522020Y987704D01*
X526999Y986434D01*
X529945Y984046D01*
X531825Y980795D01*
X532333Y975461D01*
X531774Y972464D01*
X529894Y967079D01*
X529285Y961948D01*
X529285Y933094D01*
X529894Y927963D01*
X531164Y922528D01*
X529894Y917092D01*
X529285Y911961D01*
X529285Y883107D01*
X529894Y877976D01*
X531164Y872540D01*
X529894Y867054D01*
X529285Y861974D01*
X529285Y833119D01*
X529894Y827989D01*
X531164Y822553D01*
X529894Y817067D01*
X529285Y811936D01*
X529285Y783082D01*
X529894Y778002D01*
X531164Y772515D01*
X529894Y767080D01*
X529285Y761949D01*
X529285Y733094D01*
X529894Y728065D01*
X531926Y722376D01*
X532485Y717804D01*
X531215Y712876D01*
X528929Y709930D01*
X525678Y708050D01*
X520344Y707491D01*
X517245Y708050D01*
X511860Y709930D01*
X506730Y710539D01*
X477875Y710539D01*
X472744Y709930D01*
X467309Y708660D01*
X461873Y709930D01*
X456742Y710539D01*
X427888Y710539D01*
X422757Y709930D01*
X417322Y708660D01*
X411835Y709930D01*
X406755Y710539D01*
X377850Y710539D01*
X372770Y709930D01*
X367284Y708660D01*
X361848Y709930D01*
X356717Y710539D01*
X327863Y710539D01*
X322732Y709930D01*
X317296Y708660D01*
X311861Y709930D01*
X306730Y710539D01*
X277876Y710539D01*
X272796Y709980D01*
X267157Y707898D01*
G37*

%LPD*%
G36*
X203149Y370078D02*
G01*
X199085Y370941D01*
X195681Y373329D01*
X190957Y381254D01*
X187706Y384454D01*
X183845Y386892D01*
X179527Y388416D01*
X174396Y388975D01*
X75692Y388975D01*
X71831Y389788D01*
X68529Y391972D01*
X66344Y395274D01*
X65532Y399135D01*
X65532Y404825D01*
X66344Y408736D01*
X68529Y412038D01*
X71831Y414223D01*
X75692Y414985D01*
X174396Y414985D01*
X179527Y415594D01*
X183845Y417068D01*
X187706Y419506D01*
X190957Y422757D01*
X193395Y426618D01*
X194310Y429209D01*
X196443Y432765D01*
X199847Y435203D01*
X203911Y436016D01*
X252221Y436016D01*
X257251Y436422D01*
X263499Y438099D01*
X269189Y440994D01*
X274574Y445363D01*
X313537Y484327D01*
X316788Y488137D01*
X320040Y493776D01*
X322021Y499821D01*
X322732Y506679D01*
X322732Y589381D01*
X323494Y593242D01*
X325729Y596544D01*
X329031Y598779D01*
X332892Y599541D01*
X351637Y599541D01*
X355549Y598779D01*
X358851Y596544D01*
X361035Y593242D01*
X361797Y589381D01*
X361797Y485089D01*
X361086Y481330D01*
X359003Y478078D01*
X354279Y473100D01*
X349605Y465835D01*
X346405Y457809D01*
X344728Y449326D01*
X344728Y440690D01*
X346405Y432206D01*
X349605Y424180D01*
X354279Y416915D01*
X360222Y410667D01*
X367284Y405638D01*
X375107Y402031D01*
X376682Y401675D01*
X380542Y399796D01*
X383286Y396544D01*
X384403Y392430D01*
X383794Y388213D01*
X381457Y384606D01*
X369874Y373075D01*
X366572Y370840D01*
X362661Y370078D01*
G37*

%LPD*%
G36*
X205892Y20472D02*
G01*
X201930Y21285D01*
X198628Y23520D01*
X196443Y26873D01*
X195732Y30835D01*
X199898Y299110D01*
X200710Y302920D01*
X202946Y306171D01*
X206197Y308356D01*
X210058Y309118D01*
X379069Y309118D01*
X384048Y309473D01*
X390347Y311150D01*
X395986Y314045D01*
X401370Y318363D01*
X444703Y361492D01*
X447954Y363677D01*
X451866Y364439D01*
X455726Y363677D01*
X459028Y361492D01*
X461213Y358190D01*
X462026Y354279D01*
X462026Y222910D01*
X462381Y217881D01*
X464108Y211582D01*
X466953Y205943D01*
X471322Y200558D01*
X611682Y60198D01*
X613664Y57404D01*
X614629Y54102D01*
X615086Y49936D01*
X616610Y45618D01*
X619048Y41757D01*
X622960Y37846D01*
X625144Y34544D01*
X625906Y30632D01*
X625144Y26771D01*
X622960Y23469D01*
X619658Y21285D01*
X615746Y20472D01*
G37*

%LPD*%
D10*
X545084Y249936D02*
G01*
X534923Y249936D01*
X492505Y655065D02*
G01*
X492505Y222504D01*
X642112Y72897D01*
X672337Y72897D01*
X85001Y684997D02*
G01*
X85001Y585000D01*
X35049Y535048D01*
X35049Y239773D02*
G01*
X35049Y535048D01*
X170002Y635000D02*
G01*
X160002Y635000D01*
X134998Y660003D01*
X134998Y774992D01*
X157515Y797506D01*
X199819Y797506D01*
D11*
X85013Y745007D02*
G01*
X85013Y684989D01*
X85011Y684987D01*
D10*
X242315Y660145D02*
G01*
X242315Y567181D01*
X229870Y554989D01*
X35052Y239776D02*
G01*
X74929Y199897D01*
X112521Y199897D01*
X672325Y199831D02*
G01*
X589991Y282166D01*
X589991Y449986D01*
X442468Y655065D02*
G01*
X442468Y402336D01*
X379476Y339597D01*
X112521Y339597D01*
X112521Y326897D01*
D12*
X199809Y947531D02*
G01*
X101815Y947531D01*
X80010Y969340D01*
X80010Y999997D01*
D11*
X685012Y624992D02*
G01*
X685012Y466519D01*
X672325Y453831D01*
D10*
X342287Y1040066D02*
G01*
X342287Y1114996D01*
X492396Y1265107D01*
X492396Y1292031D01*
D12*
X500265Y1234881D02*
G01*
X492318Y1242832D01*
X492318Y1292031D01*
X199783Y847531D02*
G01*
X242529Y847531D01*
X294995Y899998D01*
X296661Y898331D01*
X354218Y898331D01*
X417715Y898331D02*
G01*
X481215Y898331D01*
X354215Y898331D02*
G01*
X417715Y898331D01*
D10*
X579823Y997521D02*
G01*
X699531Y997521D01*
X735215Y961831D01*
X584827Y947531D02*
G01*
X622515Y947531D01*
X735215Y834831D01*
X735215Y809431D01*
X392318Y655022D02*
G01*
X392318Y447334D01*
X389991Y445007D01*
D12*
X112308Y72831D02*
G01*
X172831Y72831D01*
X370001Y270002D01*
X370001Y270002D02*
G01*
X370001Y244855D01*
X558228Y56629D01*
X735218Y695131D02*
G01*
X724855Y695131D01*
X670001Y749985D01*
X199809Y897519D02*
G01*
X137505Y897519D01*
X85013Y845030D01*
X85013Y745007D01*
X235000Y249986D02*
G01*
X349986Y249986D01*
X370001Y270002D01*
D10*
X292242Y654997D02*
G01*
X292242Y506155D01*
X252615Y466531D01*
X112407Y466531D01*
X112407Y453831D01*
X292315Y1040041D02*
G01*
X292315Y1292031D01*
X300217Y1292031D01*
X690001Y329999D02*
G01*
X690001Y456999D01*
X542315Y660019D02*
G01*
X542315Y537314D01*
X535000Y529998D01*
X535000Y259994D01*
X545007Y249986D01*
D13*
G01*
X685037Y465505D03*
G01*
X685037Y338505D03*
G01*
X685037Y211505D03*
G01*
X685037Y84505D03*
G01*
X125018Y84505D03*
G01*
X125018Y211505D03*
G01*
X125018Y338505D03*
G01*
X125018Y465505D03*
D14*
G01*
X730021Y710006D03*
D15*
G01*
X199821Y947521D03*
G01*
X199821Y897509D03*
G01*
X199821Y847521D03*
G01*
X199821Y797509D03*
G01*
X199821Y747521D03*
D16*
G01*
X292328Y655015D03*
G01*
X342315Y655015D03*
G01*
X392328Y655015D03*
G01*
X442315Y655015D03*
G01*
X492328Y655015D03*
D15*
G01*
X584835Y747521D03*
G01*
X584835Y797509D03*
G01*
X584835Y847521D03*
G01*
X584835Y897509D03*
G01*
X584835Y947521D03*
D17*
G01*
X492320Y1040033D03*
D16*
G01*
X442315Y1040028D03*
G01*
X392328Y1040028D03*
G01*
X342315Y1040028D03*
G01*
X292328Y1040028D03*
D18*
G01*
X542323Y653778D03*
D19*
G01*
X586071Y697529D03*
D20*
G01*
X542320Y1041280D03*
D21*
G01*
X586077Y997531D03*
D22*
G01*
X198569Y997531D03*
D23*
G01*
X242321Y1041285D03*
D24*
G01*
X242321Y653782D03*
D25*
G01*
X198567Y697529D03*
D14*
G01*
X735228Y834821D03*
G01*
X735228Y961821D03*
G01*
X79984Y999997D03*
D26*
G01*
X99999Y1289989D03*
D27*
G01*
X299999Y1289989D03*
G01*
X500151Y1290193D03*
G01*
X699998Y1289989D03*
D28*
G01*
X235000Y249986D03*
G01*
X559993Y1129995D03*
G01*
X670001Y749985D03*
G01*
X513206Y106629D03*
G01*
X558215Y56642D03*
G01*
X370001Y270002D03*
G01*
X417703Y898321D03*
G01*
X481203Y898321D03*
G01*
X354203Y898321D03*
G01*
X685012Y624992D03*
G01*
X545007Y249986D03*
G01*
X170002Y635000D03*
G01*
X229996Y554989D03*
G01*
X389991Y445007D03*
G01*
X589991Y449986D03*
G01*
X85013Y745007D03*
G01*
X85013Y684987D03*
G01*
X54990Y899998D03*
G01*
X229996Y399999D03*
G01*
X389991Y734999D03*
M02*
