G04 Layer: BottomSilkscreenLayer*
G04 EasyEDA v6.5.15, 2022-09-11 10:55:29*
G04 ed46f784822541178e28114758a66e58,0733e296ef1a46c0ad389398f95fef4a,10*
G04 Gerber Generator version 0.2*
G04 Scale: 100 percent, Rotated: No, Reflected: No *
G04 Dimensions in millimeters *
G04 leading zeros omitted , absolute positions ,4 integer and 5 decimal *
%FSLAX45Y45*%
%MOMM*%

%ADD10C,0.1500*%
%ADD11C,0.1524*%
%ADD12C,0.2540*%

%LPD*%
D10*
X697115Y1076131D02*
G01*
X697115Y1139631D01*
X729117Y1108130D02*
G01*
X665617Y1108130D01*
X540001Y1099997D02*
G01*
X501901Y1138097D01*
X463801Y1099997D01*
X138315Y1114231D02*
G01*
X62115Y1114231D01*
X339999Y1134996D02*
G01*
X301899Y1096896D01*
X263799Y1134996D01*
D11*
X261378Y822385D02*
G01*
X261378Y997628D01*
X365541Y997628D01*
X568617Y822385D02*
G01*
X568617Y997628D01*
X464459Y997628D01*
X369460Y822385D02*
G01*
X460540Y822385D01*
D12*
X480024Y-12400D02*
G01*
X480024Y15001D01*
X660016Y12999D02*
G01*
X660021Y-12400D01*
X420016Y265003D02*
G01*
X720021Y265000D01*
X420016Y15003D02*
G01*
X720021Y15003D01*
X720021Y31887D02*
G01*
X720021Y15003D01*
X420016Y15003D02*
G01*
X420016Y31887D01*
X420016Y248114D02*
G01*
X420016Y265000D01*
X720021Y265000D02*
G01*
X720021Y248114D01*
X45999Y174975D02*
G01*
X45999Y94973D01*
X156974Y205960D02*
G01*
X76977Y205960D01*
X156974Y63995D02*
G01*
X76977Y63995D01*
X214563Y206542D02*
G01*
X294563Y206542D01*
X325546Y175559D02*
G01*
X325546Y95562D01*
X214563Y64582D02*
G01*
X294563Y64582D01*
D11*
X618939Y487616D02*
G01*
X618939Y583504D01*
X751060Y583504D01*
X751060Y487616D01*
X618939Y402376D02*
G01*
X618939Y306486D01*
X751060Y306486D01*
X751060Y402376D01*
X433938Y487619D02*
G01*
X433938Y583504D01*
X566061Y583504D01*
X566061Y487619D01*
X433938Y402369D02*
G01*
X433938Y306486D01*
X566061Y306486D01*
X566061Y402369D01*
X73939Y487619D02*
G01*
X73939Y583509D01*
X206060Y583509D01*
X206060Y487619D01*
X73939Y402376D02*
G01*
X73939Y306491D01*
X206060Y306491D01*
X206060Y402376D01*
X253939Y487619D02*
G01*
X253939Y583504D01*
X386057Y583504D01*
X386057Y487619D01*
X253939Y402369D02*
G01*
X253939Y306486D01*
X386057Y306486D01*
X386057Y402369D01*
X206057Y867376D02*
G01*
X206057Y771486D01*
X73934Y771486D01*
X73934Y867376D01*
X206057Y952621D02*
G01*
X206057Y1048506D01*
X73934Y1048506D01*
X73934Y952621D01*
X613940Y952616D02*
G01*
X613940Y1048501D01*
X746061Y1048501D01*
X746061Y952616D01*
X613940Y867376D02*
G01*
X613940Y771481D01*
X746061Y771481D01*
X746061Y867376D01*
D12*
G75*
G01*
X480022Y-12400D02*
G03*
X660022Y-12400I90000J32029D01*
G75*
G01*
X325552Y175560D02*
G03*
X294569Y206543I-30983J0D01*
G75*
G01*
X294569Y64577D02*
G03*
X325552Y95562I0J30983D01*
G75*
G01*
X76982Y205961D02*
G03*
X45999Y174976I0J-30983D01*
G75*
G01*
X45999Y94978D02*
G03*
X76982Y63995I30983J0D01*
M02*
