;Layer: Drill PTH
;EasyEDA v6.4.7, 2020-12-23T10:17:39+03:00
;bf3f715a1c0e44a583c2b2c1f4ee8152,0733e296ef1a46c0ad389398f95fef4a,10
;Gerber Generator version 0.2
M48
INCH,LZ,00.0000
;Holesize 1 = 0.012 INCH
T01C0.012
;Holesize 2 = 0.028 INCH
T02C0.028
%
G05
G90
T01
X+002150Y+003800
X+000750Y+002450
X+000450Y+002150
X+001950Y+003200
X+001525Y+004775
X+002175Y+004825
X+000600Y+004827
X+002350Y+000300
X+002550Y+003300
X+001950Y+002150
X+002250Y+003500
X+002950Y+002100
X+001900Y+003500
X+000350Y+003800
X+000350Y+003075
X+002400Y+000650
X+002650Y+002250
X+001650Y+002200
T02
X+000600Y+005550
X+001387Y+005550
X+002175Y+005549
X+002962Y+005550
M30
