G04 Layer: TopSolderMaskLayer*
G04 EasyEDA v6.4.7, 2020-12-23T10:17:39+03:00*
G04 bf3f715a1c0e44a583c2b2c1f4ee8152,0733e296ef1a46c0ad389398f95fef4a,10*
G04 Gerber Generator version 0.2*
G04 Scale: 100 percent, Rotated: No, Reflected: No *
G04 Dimensions in inches *
G04 leading zeros omitted , absolute positions ,2 integer and 4 decimal *
%FSLAX24Y24*%
%MOIN*%
G90*
D02*

%ADD31C,0.067055*%
%ADD34R,0.019810X0.027685*%

%LPD*%
G54D31*
G01X1387Y5353D02*
G01X1387Y5746D01*
G01X2175Y5352D02*
G01X2175Y5746D01*
G01X2962Y5353D02*
G01X2962Y5746D01*
G36*
G01X88Y3567D02*
G01X88Y4336D01*
G01X1211Y4336D01*
G01X1211Y3567D01*
G01X88Y3567D01*
G37*
G36*
G01X88Y2663D02*
G01X88Y3432D01*
G01X1211Y3432D01*
G01X1211Y2663D01*
G01X88Y2663D01*
G37*
G36*
G01X1473Y3992D02*
G01X1473Y4190D01*
G01X1751Y4190D01*
G01X1751Y3992D01*
G01X1473Y3992D01*
G37*
G36*
G01X1473Y3794D02*
G01X1473Y3992D01*
G01X1751Y3992D01*
G01X1751Y3794D01*
G01X1473Y3794D01*
G37*
G36*
G01X1473Y3598D02*
G01X1473Y3796D01*
G01X1751Y3796D01*
G01X1751Y3598D01*
G01X1473Y3598D01*
G37*
G36*
G01X1473Y3401D02*
G01X1473Y3598D01*
G01X1751Y3598D01*
G01X1751Y3401D01*
G01X1473Y3401D01*
G37*
G36*
G01X1473Y3203D02*
G01X1473Y3401D01*
G01X1751Y3401D01*
G01X1751Y3203D01*
G01X1473Y3203D01*
G37*
G36*
G01X1473Y3007D02*
G01X1473Y3205D01*
G01X1751Y3205D01*
G01X1751Y3007D01*
G01X1473Y3007D01*
G37*
G36*
G01X1473Y2809D02*
G01X1473Y3009D01*
G01X1751Y3009D01*
G01X1751Y2809D01*
G01X1473Y2809D01*
G37*
G36*
G01X1709Y2573D02*
G01X1709Y2851D01*
G01X1909Y2851D01*
G01X1909Y2573D01*
G01X1709Y2573D01*
G37*
G36*
G01X1907Y2573D02*
G01X1907Y2851D01*
G01X2105Y2851D01*
G01X2105Y2573D01*
G01X1907Y2573D01*
G37*
G36*
G01X2103Y2573D02*
G01X2103Y2851D01*
G01X2301Y2851D01*
G01X2301Y2573D01*
G01X2103Y2573D01*
G37*
G54D34*
G01X2400Y2712D03*
G01X2596Y2712D03*
G36*
G01X2694Y2573D02*
G01X2694Y2851D01*
G01X2892Y2851D01*
G01X2892Y2573D01*
G01X2694Y2573D01*
G37*
G36*
G01X2892Y2573D02*
G01X2892Y2851D01*
G01X3090Y2851D01*
G01X3090Y2573D01*
G01X2892Y2573D01*
G37*
G36*
G01X3048Y2809D02*
G01X3048Y3009D01*
G01X3326Y3009D01*
G01X3326Y2809D01*
G01X3048Y2809D01*
G37*
G36*
G01X3048Y3007D02*
G01X3048Y3205D01*
G01X3326Y3205D01*
G01X3326Y3007D01*
G01X3048Y3007D01*
G37*
G36*
G01X3048Y3203D02*
G01X3048Y3401D01*
G01X3326Y3401D01*
G01X3326Y3203D01*
G01X3048Y3203D01*
G37*
G36*
G01X3048Y3401D02*
G01X3048Y3598D01*
G01X3326Y3598D01*
G01X3326Y3401D01*
G01X3048Y3401D01*
G37*
G36*
G01X3048Y3598D02*
G01X3048Y3796D01*
G01X3326Y3796D01*
G01X3326Y3598D01*
G01X3048Y3598D01*
G37*
G36*
G01X3048Y3794D02*
G01X3048Y3992D01*
G01X3326Y3992D01*
G01X3326Y3794D01*
G01X3048Y3794D01*
G37*
G36*
G01X3048Y3992D02*
G01X3048Y4190D01*
G01X3326Y4190D01*
G01X3326Y3992D01*
G01X3048Y3992D01*
G37*
G36*
G01X2892Y4148D02*
G01X2892Y4426D01*
G01X3090Y4426D01*
G01X3090Y4148D01*
G01X2892Y4148D01*
G37*
G36*
G01X2694Y4148D02*
G01X2694Y4426D01*
G01X2892Y4426D01*
G01X2892Y4148D01*
G01X2694Y4148D01*
G37*
G36*
G01X2498Y4148D02*
G01X2498Y4426D01*
G01X2696Y4426D01*
G01X2696Y4148D01*
G01X2498Y4148D01*
G37*
G36*
G01X2301Y4148D02*
G01X2301Y4426D01*
G01X2498Y4426D01*
G01X2498Y4148D01*
G01X2301Y4148D01*
G37*
G36*
G01X2103Y4148D02*
G01X2103Y4426D01*
G01X2301Y4426D01*
G01X2301Y4148D01*
G01X2103Y4148D01*
G37*
G36*
G01X1907Y4148D02*
G01X1907Y4426D01*
G01X2105Y4426D01*
G01X2105Y4148D01*
G01X1907Y4148D01*
G37*
G36*
G01X1709Y4148D02*
G01X1709Y4426D01*
G01X1909Y4426D01*
G01X1909Y4148D01*
G01X1709Y4148D01*
G37*
G36*
G01X2615Y1642D02*
G01X2615Y1957D01*
G01X3088Y1957D01*
G01X3088Y1642D01*
G01X2615Y1642D01*
G37*
G36*
G01X2615Y1142D02*
G01X2615Y1457D01*
G01X3088Y1457D01*
G01X3088Y1142D01*
G01X2615Y1142D01*
G37*
G36*
G01X2615Y642D02*
G01X2615Y957D01*
G01X3088Y957D01*
G01X3088Y642D01*
G01X2615Y642D01*
G37*
G36*
G01X2615Y142D02*
G01X2615Y457D01*
G01X3088Y457D01*
G01X3088Y142D01*
G01X2615Y142D01*
G37*
G36*
G01X411Y142D02*
G01X411Y457D01*
G01X884Y457D01*
G01X884Y142D01*
G01X411Y142D01*
G37*
G36*
G01X411Y642D02*
G01X411Y957D01*
G01X884Y957D01*
G01X884Y642D01*
G01X411Y642D01*
G37*
G36*
G01X411Y1142D02*
G01X411Y1457D01*
G01X884Y1457D01*
G01X884Y1142D01*
G01X411Y1142D01*
G37*
G36*
G01X411Y1642D02*
G01X411Y1957D01*
G01X884Y1957D01*
G01X884Y1642D01*
G01X411Y1642D01*
G37*
G36*
G01X3009Y4559D02*
G01X3009Y4940D01*
G01X3390Y4940D01*
G01X3390Y4559D01*
G01X3009Y4559D01*
G37*
G36*
G01X2509Y4559D02*
G01X2509Y4940D01*
G01X2890Y4940D01*
G01X2890Y4559D01*
G01X2509Y4559D01*
G37*
G36*
G01X265Y5017D02*
G01X265Y6082D01*
G01X934Y6082D01*
G01X934Y5017D01*
G01X265Y5017D01*
G37*
M00*
M02*
